<svg xmlns="http://www.w3.org/2000/svg" xmlns:xlink="http://www.w3.org/1999/xlink" width="968" height="763" viewBox="0 0 968 763">
  <defs>
    <clipPath id="clip-path">
      <rect width="739" height="519" fill="none"/>
    </clipPath>
    <clipPath id="clip-path-2">
      <rect width="145" height="134" fill="none"/>
    </clipPath>
    <clipPath id="clip-Artboard_2">
      <rect width="968" height="763"/>
    </clipPath>
  </defs>
  <g id="Artboard_2" data-name="Artboard – 2" clip-path="url(#clip-Artboard_2)">
    <rect width="968" height="763" stroke-opacity="0" stroke="none" fill="none"/>
    <g id="Rectangle_1" data-name="Rectangle 1" transform="translate(75 55)" fill="#fff" stroke="#000" stroke-linejoin="round" stroke-width="12">
      <rect width="847" height="654" rx="67" stroke="none"/>
      <rect x="-6" y="-6" width="859" height="666" rx="73" fill="none"/>
    </g>
    <g id="Repeat_Grid_3" data-name="Repeat Grid 3" transform="translate(138 132)" clip-path="url(#clip-path)">
      <g transform="translate(-145 -115)">
        <g id="Repeat_Grid_2" data-name="Repeat Grid 2" transform="translate(145 115)" clip-path="url(#clip-path-2)">
          <g transform="translate(-145 -115)">
            <g id="Rectangle_3" data-name="Rectangle 3" transform="translate(157 127)" fill="#fff" stroke="#000" stroke-linejoin="round" stroke-width="12">
              <rect width="121" height="110" rx="35" stroke="none"/>
              <rect x="-6" y="-6" width="133" height="122" rx="41" fill="none"/>
            </g>
          </g>
        </g>
        <line id="Line_13" data-name="Line 13" x2="92" transform="translate(171.5 171.5)" fill="none" stroke="#000" stroke-width="12"/>
      </g>
      <g transform="translate(49 -115)">
        <g id="Repeat_Grid_2-2" data-name="Repeat Grid 2" transform="translate(145 115)" clip-path="url(#clip-path-2)">
          <g transform="translate(-145 -115)">
            <g id="Rectangle_3-2" data-name="Rectangle 3" transform="translate(157 127)" fill="#fff" stroke="#000" stroke-linejoin="round" stroke-width="12">
              <rect width="121" height="110" rx="35" stroke="none"/>
              <rect x="-6" y="-6" width="133" height="122" rx="41" fill="none"/>
            </g>
          </g>
        </g>
        <line id="Line_13-2" data-name="Line 13" x2="92" transform="translate(171.5 171.5)" fill="none" stroke="#000" stroke-width="12"/>
      </g>
      <g transform="translate(243 -115)">
        <g id="Repeat_Grid_2-3" data-name="Repeat Grid 2" transform="translate(145 115)" clip-path="url(#clip-path-2)">
          <g transform="translate(-145 -115)">
            <g id="Rectangle_3-3" data-name="Rectangle 3" transform="translate(157 127)" fill="#fff" stroke="#000" stroke-linejoin="round" stroke-width="12">
              <rect width="121" height="110" rx="35" stroke="none"/>
              <rect x="-6" y="-6" width="133" height="122" rx="41" fill="none"/>
            </g>
          </g>
        </g>
        <line id="Line_13-3" data-name="Line 13" x2="92" transform="translate(171.5 171.5)" fill="none" stroke="#000" stroke-width="12"/>
      </g>
      <g transform="translate(437 -115)">
        <g id="Repeat_Grid_2-4" data-name="Repeat Grid 2" transform="translate(145 115)" clip-path="url(#clip-path-2)">
          <g transform="translate(-145 -115)">
            <g id="Rectangle_3-4" data-name="Rectangle 3" transform="translate(157 127)" fill="#fff" stroke="#000" stroke-linejoin="round" stroke-width="12">
              <rect width="121" height="110" rx="35" stroke="none"/>
              <rect x="-6" y="-6" width="133" height="122" rx="41" fill="none"/>
            </g>
          </g>
        </g>
        <line id="Line_13-4" data-name="Line 13" x2="92" transform="translate(171.5 171.5)" fill="none" stroke="#000" stroke-width="12"/>
      </g>
      <g transform="translate(-145 68)">
        <g id="Repeat_Grid_2-5" data-name="Repeat Grid 2" transform="translate(145 115)" clip-path="url(#clip-path-2)">
          <g transform="translate(-145 -115)">
            <g id="Rectangle_3-5" data-name="Rectangle 3" transform="translate(157 127)" fill="#fff" stroke="#000" stroke-linejoin="round" stroke-width="12">
              <rect width="121" height="110" rx="35" stroke="none"/>
              <rect x="-6" y="-6" width="133" height="122" rx="41" fill="none"/>
            </g>
          </g>
        </g>
        <line id="Line_13-5" data-name="Line 13" x2="92" transform="translate(171.5 171.5)" fill="none" stroke="#000" stroke-width="12"/>
      </g>
      <g transform="translate(49 68)">
        <g id="Repeat_Grid_2-6" data-name="Repeat Grid 2" transform="translate(145 115)" clip-path="url(#clip-path-2)">
          <g transform="translate(-145 -115)">
            <g id="Rectangle_3-6" data-name="Rectangle 3" transform="translate(157 127)" fill="#fff" stroke="#000" stroke-linejoin="round" stroke-width="12">
              <rect width="121" height="110" rx="35" stroke="none"/>
              <rect x="-6" y="-6" width="133" height="122" rx="41" fill="none"/>
            </g>
          </g>
        </g>
        <line id="Line_13-6" data-name="Line 13" x2="92" transform="translate(171.5 171.5)" fill="none" stroke="#000" stroke-width="12"/>
      </g>
      <g transform="translate(243 68)">
        <g id="Repeat_Grid_2-7" data-name="Repeat Grid 2" transform="translate(145 115)" clip-path="url(#clip-path-2)">
          <g transform="translate(-145 -115)">
            <g id="Rectangle_3-7" data-name="Rectangle 3" transform="translate(157 127)" fill="#fff" stroke="#000" stroke-linejoin="round" stroke-width="12">
              <rect width="121" height="110" rx="35" stroke="none"/>
              <rect x="-6" y="-6" width="133" height="122" rx="41" fill="none"/>
            </g>
          </g>
        </g>
        <line id="Line_13-7" data-name="Line 13" x2="92" transform="translate(171.5 171.5)" fill="none" stroke="#000" stroke-width="12"/>
      </g>
      <g transform="translate(437 68)">
        <g id="Repeat_Grid_2-8" data-name="Repeat Grid 2" transform="translate(145 115)" clip-path="url(#clip-path-2)">
          <g transform="translate(-145 -115)">
            <g id="Rectangle_3-8" data-name="Rectangle 3" transform="translate(157 127)" fill="#fff" stroke="#000" stroke-linejoin="round" stroke-width="12">
              <rect width="121" height="110" rx="35" stroke="none"/>
              <rect x="-6" y="-6" width="133" height="122" rx="41" fill="none"/>
            </g>
          </g>
        </g>
        <line id="Line_13-8" data-name="Line 13" x2="92" transform="translate(171.5 171.5)" fill="none" stroke="#000" stroke-width="12"/>
      </g>
      <g transform="translate(-145 251)">
        <g id="Repeat_Grid_2-9" data-name="Repeat Grid 2" transform="translate(145 115)" clip-path="url(#clip-path-2)">
          <g transform="translate(-145 -115)">
            <g id="Rectangle_3-9" data-name="Rectangle 3" transform="translate(157 127)" fill="#fff" stroke="#000" stroke-linejoin="round" stroke-width="12">
              <rect width="121" height="110" rx="35" stroke="none"/>
              <rect x="-6" y="-6" width="133" height="122" rx="41" fill="none"/>
            </g>
          </g>
        </g>
        <line id="Line_13-9" data-name="Line 13" x2="92" transform="translate(171.5 171.5)" fill="none" stroke="#000" stroke-width="12"/>
      </g>
      <g transform="translate(49 251)">
        <g id="Repeat_Grid_2-10" data-name="Repeat Grid 2" transform="translate(145 115)" clip-path="url(#clip-path-2)">
          <g transform="translate(-145 -115)">
            <g id="Rectangle_3-10" data-name="Rectangle 3" transform="translate(157 127)" fill="#fff" stroke="#000" stroke-linejoin="round" stroke-width="12">
              <rect width="121" height="110" rx="35" stroke="none"/>
              <rect x="-6" y="-6" width="133" height="122" rx="41" fill="none"/>
            </g>
          </g>
        </g>
        <line id="Line_13-10" data-name="Line 13" x2="92" transform="translate(171.5 171.5)" fill="none" stroke="#000" stroke-width="12"/>
      </g>
      <g transform="translate(243 251)">
        <g id="Repeat_Grid_2-11" data-name="Repeat Grid 2" transform="translate(145 115)" clip-path="url(#clip-path-2)">
          <g transform="translate(-145 -115)">
            <g id="Rectangle_3-11" data-name="Rectangle 3" transform="translate(157 127)" fill="#fff" stroke="#000" stroke-linejoin="round" stroke-width="12">
              <rect width="121" height="110" rx="35" stroke="none"/>
              <rect x="-6" y="-6" width="133" height="122" rx="41" fill="none"/>
            </g>
          </g>
        </g>
        <line id="Line_13-11" data-name="Line 13" x2="92" transform="translate(171.5 171.5)" fill="none" stroke="#000" stroke-width="12"/>
      </g>
      <g transform="translate(437 251)">
        <g id="Repeat_Grid_2-12" data-name="Repeat Grid 2" transform="translate(145 115)" clip-path="url(#clip-path-2)">
          <g transform="translate(-145 -115)">
            <g id="Rectangle_3-12" data-name="Rectangle 3" transform="translate(157 127)" fill="#fff" stroke="#000" stroke-linejoin="round" stroke-width="12">
              <rect width="121" height="110" rx="35" stroke="none"/>
              <rect x="-6" y="-6" width="133" height="122" rx="41" fill="none"/>
            </g>
          </g>
        </g>
        <line id="Line_13-12" data-name="Line 13" x2="92" transform="translate(171.5 171.5)" fill="none" stroke="#000" stroke-width="12"/>
      </g>
    </g>
  </g>
</svg>
