<svg xmlns="http://www.w3.org/2000/svg" xmlns:xlink="http://www.w3.org/1999/xlink" width="968" height="763" viewBox="0 0 968 763">
  <defs>
    <clipPath id="clip-Artboard_1">
      <rect width="968" height="763"/>
    </clipPath>
  </defs>
  <g id="Artboard_1" data-name="Artboard – 1" clip-path="url(#clip-Artboard_1)">
    <rect width="968" height="763" fill="#fff"/>
    <g id="Rectangle_1" data-name="Rectangle 1" transform="translate(70 60)" fill="#fff" stroke="#000" stroke-linejoin="round" stroke-width="12">
      <rect width="847" height="654" rx="67" stroke="none"/>
      <rect x="-6" y="-6" width="859" height="666" rx="73" fill="none"/>
    </g>
    <g id="Rectangle_2" data-name="Rectangle 2" transform="translate(136 136)" fill="#fff" stroke="#000" stroke-linejoin="round" stroke-width="12">
      <rect width="191" height="515" rx="38" stroke="none"/>
      <rect x="-6" y="-6" width="203" height="527" rx="44" fill="none"/>
    </g>
    <g id="Rectangle_3" data-name="Rectangle 3" transform="translate(392 136)" fill="#fff" stroke="#000" stroke-linejoin="round" stroke-width="12">
      <rect width="454" height="515" rx="35" stroke="none"/>
      <rect x="-6" y="-6" width="466" height="527" rx="41" fill="none"/>
    </g>
    <line id="Line_2" data-name="Line 2" x2="131" transform="translate(164.5 271.5)" fill="none" stroke="#000" stroke-width="12"/>
    <line id="Line_4" data-name="Line 4" x2="131" transform="translate(164.5 354.5)" fill="none" stroke="#000" stroke-width="12"/>
    <line id="Line_7" data-name="Line 7" x2="131" transform="translate(164.5 435.5)" fill="none" stroke="#000" stroke-width="12"/>
    <line id="Line_9" data-name="Line 9" y1="1" x2="131" transform="translate(164.5 515.5)" fill="none" stroke="#000" stroke-width="12"/>
    <line id="Line_11" data-name="Line 11" x2="131" transform="translate(164.5 597.5)" fill="none" stroke="#000" stroke-width="12"/>
    <g id="Rectangle_4" data-name="Rectangle 4" transform="translate(421 192)" fill="#fff" stroke="#000" stroke-width="12">
      <rect width="397" height="41" stroke="none"/>
      <rect x="6" y="6" width="385" height="29" fill="none"/>
    </g>
    <g id="Rectangle_6" data-name="Rectangle 6" transform="translate(420 313)" fill="#fff" stroke="#000" stroke-width="12">
      <rect width="397" height="41" stroke="none"/>
      <rect x="6" y="6" width="385" height="29" fill="none"/>
    </g>
    <g id="Rectangle_8" data-name="Rectangle 8" transform="translate(421 434)" fill="#fff" stroke="#000" stroke-width="12">
      <rect width="397" height="41" stroke="none"/>
      <rect x="6" y="6" width="385" height="29" fill="none"/>
    </g>
    <g id="Rectangle_10" data-name="Rectangle 10" transform="translate(421 555)" fill="#fff" stroke="#000" stroke-width="12">
      <rect width="397" height="41" stroke="none"/>
      <rect x="6" y="6" width="385" height="29" fill="none"/>
    </g>
    <line id="Line_12" data-name="Line 12" x2="131" transform="translate(164.5 190.5)" fill="none" stroke="#000" stroke-width="12"/>
  </g>
</svg>
