<svg xmlns="http://www.w3.org/2000/svg" xmlns:xlink="http://www.w3.org/1999/xlink" width="968" height="763" viewBox="0 0 968 763">
  <defs>
    <clipPath id="clip-path">
      <rect width="495" height="546" fill="none"/>
    </clipPath>
    <clipPath id="clip-Artboard_3">
      <rect width="968" height="763"/>
    </clipPath>
  </defs>
  <g id="Artboard_3" data-name="Artboard – 3" clip-path="url(#clip-Artboard_3)">
    <rect width="968" height="763" fill="#fff"/>
    <g id="Rectangle_1" data-name="Rectangle 1" transform="translate(66 67)" fill="#fff" stroke="#000" stroke-linejoin="round" stroke-width="12">
      <rect width="847" height="654" rx="67" stroke="none"/>
      <rect x="-6" y="-6" width="859" height="666" rx="73" fill="none"/>
    </g>
    <g id="Rectangle_2" data-name="Rectangle 2" transform="translate(136 136)" fill="#fff" stroke="#000" stroke-linejoin="round" stroke-width="12">
      <rect width="191" height="515" rx="38" stroke="none"/>
      <rect x="-6" y="-6" width="203" height="527" rx="44" fill="none"/>
    </g>
    <line id="Line_2" data-name="Line 2" x2="131" transform="translate(164.5 271.5)" fill="none" stroke="#000" stroke-width="12"/>
    <line id="Line_4" data-name="Line 4" x2="131" transform="translate(164.5 354.5)" fill="none" stroke="#000" stroke-width="12"/>
    <line id="Line_7" data-name="Line 7" x2="131" transform="translate(164.5 435.5)" fill="none" stroke="#000" stroke-width="12"/>
    <line id="Line_9" data-name="Line 9" y1="1" x2="131" transform="translate(164.5 515.5)" fill="none" stroke="#000" stroke-width="12"/>
    <line id="Line_11" data-name="Line 11" x2="131" transform="translate(164.5 597.5)" fill="none" stroke="#000" stroke-width="12"/>
    <line id="Line_12" data-name="Line 12" x2="131" transform="translate(164.5 190.5)" fill="none" stroke="#000" stroke-width="12"/>
    <g id="Repeat_Grid_1" data-name="Repeat Grid 1" transform="translate(377 124)" clip-path="url(#clip-path)">
      <g transform="translate(-377 -124)">
        <g id="Group_1" data-name="Group 1" transform="translate(-3)">
          <g id="Rectangle_3" data-name="Rectangle 3" transform="translate(392 136)" fill="#fff" stroke="#000" stroke-linejoin="round" stroke-width="12">
            <rect width="121" height="110" rx="35" stroke="none"/>
            <rect x="-6" y="-6" width="133" height="122" rx="41" fill="none"/>
          </g>
        </g>
        <g id="Polygon_1" data-name="Polygon 1" transform="translate(425 213)" fill="#ef7373">
          <path d="M 27.03983688354492 19 L 1.960163235664368 19 L 14.5 1.703673481941223 L 27.03983688354492 19 Z" stroke="none"/>
          <path d="M 14.5 3.407346725463867 L 3.920326232910156 18 L 25.07967376708984 18 L 14.5 3.407346725463867 M 14.5 0 L 29 20 L 0 20 L 14.5 0 Z" stroke="none"/>
        </g>
        <g id="Polygon_2" data-name="Polygon 2" transform="translate(446 201)" fill="#8ed900">
          <path d="M 39.24675369262695 30 L 3.753245830535889 30 L 21.5 3.586226463317871 L 39.24675369262695 30 Z" stroke="none"/>
          <path d="M 21.5 7.172452926635742 L 7.506492614746094 28 L 35.49350738525391 28 L 21.5 7.172452926635742 M 21.5 0 L 43 32 L 0 32 L 21.5 0 Z" stroke="none"/>
        </g>
        <g id="Ellipse_1" data-name="Ellipse 1" transform="translate(425 158)" fill="#f8e654" stroke="#707070" stroke-width="1">
          <ellipse cx="13.5" cy="12.5" rx="13.5" ry="12.5" stroke="none"/>
          <ellipse cx="13.5" cy="12.5" rx="13" ry="12" fill="none"/>
        </g>
        <g id="Group_4" data-name="Group 4" transform="translate(172)">
          <g id="Rectangle_3-2" data-name="Rectangle 3" transform="translate(392 136)" fill="#fff" stroke="#000" stroke-linejoin="round" stroke-width="12">
            <rect width="121" height="110" rx="35" stroke="none"/>
            <rect x="-6" y="-6" width="133" height="122" rx="41" fill="none"/>
          </g>
        </g>
        <g id="Polygon_3" data-name="Polygon 3" transform="translate(584 213)" fill="#ef7373">
          <path d="M 27.03983688354492 19 L 1.960163235664368 19 L 14.5 1.703673481941223 L 27.03983688354492 19 Z" stroke="none"/>
          <path d="M 14.5 3.407346725463867 L 3.920326232910156 18 L 25.07967376708984 18 L 14.5 3.407346725463867 M 14.5 0 L 29 20 L 0 20 L 14.5 0 Z" stroke="none"/>
        </g>
        <g id="Polygon_4" data-name="Polygon 4" transform="translate(605 201)" fill="#8ed900">
          <path d="M 39.24675369262695 30 L 3.753245830535889 30 L 21.5 3.586226463317871 L 39.24675369262695 30 Z" stroke="none"/>
          <path d="M 21.5 7.172452926635742 L 7.506492614746094 28 L 35.49350738525391 28 L 21.5 7.172452926635742 M 21.5 0 L 43 32 L 0 32 L 21.5 0 Z" stroke="none"/>
        </g>
        <g id="Ellipse_2" data-name="Ellipse 2" transform="translate(584 158)" fill="#f8e654" stroke="#707070" stroke-width="1">
          <ellipse cx="13.5" cy="12.5" rx="13.5" ry="12.5" stroke="none"/>
          <ellipse cx="13.5" cy="12.5" rx="13" ry="12" fill="none"/>
        </g>
        <g id="Group_5" data-name="Group 5" transform="translate(347)">
          <g id="Rectangle_3-3" data-name="Rectangle 3" transform="translate(392 136)" fill="#fff" stroke="#000" stroke-linejoin="round" stroke-width="12">
            <rect width="121" height="110" rx="35" stroke="none"/>
            <rect x="-6" y="-6" width="133" height="122" rx="41" fill="none"/>
          </g>
        </g>
        <g id="Polygon_5" data-name="Polygon 5" transform="translate(761 213)" fill="#ef7373">
          <path d="M 27.03983688354492 19 L 1.960163235664368 19 L 14.5 1.703673481941223 L 27.03983688354492 19 Z" stroke="none"/>
          <path d="M 14.5 3.407346725463867 L 3.920326232910156 18 L 25.07967376708984 18 L 14.5 3.407346725463867 M 14.5 0 L 29 20 L 0 20 L 14.5 0 Z" stroke="none"/>
        </g>
        <g id="Polygon_6" data-name="Polygon 6" transform="translate(782 201)" fill="#8ed900">
          <path d="M 39.24675369262695 30 L 3.753245830535889 30 L 21.5 3.586226463317871 L 39.24675369262695 30 Z" stroke="none"/>
          <path d="M 21.5 7.172452926635742 L 7.506492614746094 28 L 35.49350738525391 28 L 21.5 7.172452926635742 M 21.5 0 L 43 32 L 0 32 L 21.5 0 Z" stroke="none"/>
        </g>
        <g id="Ellipse_3" data-name="Ellipse 3" transform="translate(761 158)" fill="#f8e654" stroke="#707070" stroke-width="1">
          <ellipse cx="13.5" cy="12.5" rx="13.5" ry="12.5" stroke="none"/>
          <ellipse cx="13.5" cy="12.5" rx="13" ry="12" fill="none"/>
        </g>
      </g>
      <g transform="translate(-377 72)">
        <g id="Group_1-2" data-name="Group 1" transform="translate(-3)">
          <g id="Rectangle_3-4" data-name="Rectangle 3" transform="translate(392 136)" fill="#fff" stroke="#000" stroke-linejoin="round" stroke-width="12">
            <rect width="121" height="110" rx="35" stroke="none"/>
            <rect x="-6" y="-6" width="133" height="122" rx="41" fill="none"/>
          </g>
        </g>
        <g id="Polygon_1-2" data-name="Polygon 1" transform="translate(425 213)" fill="#ef7373">
          <path d="M 27.03983688354492 19 L 1.960163235664368 19 L 14.5 1.703673481941223 L 27.03983688354492 19 Z" stroke="none"/>
          <path d="M 14.5 3.407346725463867 L 3.920326232910156 18 L 25.07967376708984 18 L 14.5 3.407346725463867 M 14.5 0 L 29 20 L 0 20 L 14.5 0 Z" stroke="none"/>
        </g>
        <g id="Polygon_2-2" data-name="Polygon 2" transform="translate(446 201)" fill="#8ed900">
          <path d="M 39.24675369262695 30 L 3.753245830535889 30 L 21.5 3.586226463317871 L 39.24675369262695 30 Z" stroke="none"/>
          <path d="M 21.5 7.172452926635742 L 7.506492614746094 28 L 35.49350738525391 28 L 21.5 7.172452926635742 M 21.5 0 L 43 32 L 0 32 L 21.5 0 Z" stroke="none"/>
        </g>
        <g id="Ellipse_1-2" data-name="Ellipse 1" transform="translate(425 158)" fill="#f8e654" stroke="#707070" stroke-width="1">
          <ellipse cx="13.5" cy="12.5" rx="13.5" ry="12.5" stroke="none"/>
          <ellipse cx="13.5" cy="12.5" rx="13" ry="12" fill="none"/>
        </g>
        <g id="Group_4-2" data-name="Group 4" transform="translate(172)">
          <g id="Rectangle_3-5" data-name="Rectangle 3" transform="translate(392 136)" fill="#fff" stroke="#000" stroke-linejoin="round" stroke-width="12">
            <rect width="121" height="110" rx="35" stroke="none"/>
            <rect x="-6" y="-6" width="133" height="122" rx="41" fill="none"/>
          </g>
        </g>
        <g id="Polygon_3-2" data-name="Polygon 3" transform="translate(584 213)" fill="#ef7373">
          <path d="M 27.03983688354492 19 L 1.960163235664368 19 L 14.5 1.703673481941223 L 27.03983688354492 19 Z" stroke="none"/>
          <path d="M 14.5 3.407346725463867 L 3.920326232910156 18 L 25.07967376708984 18 L 14.5 3.407346725463867 M 14.5 0 L 29 20 L 0 20 L 14.5 0 Z" stroke="none"/>
        </g>
        <g id="Polygon_4-2" data-name="Polygon 4" transform="translate(605 201)" fill="#8ed900">
          <path d="M 39.24675369262695 30 L 3.753245830535889 30 L 21.5 3.586226463317871 L 39.24675369262695 30 Z" stroke="none"/>
          <path d="M 21.5 7.172452926635742 L 7.506492614746094 28 L 35.49350738525391 28 L 21.5 7.172452926635742 M 21.5 0 L 43 32 L 0 32 L 21.5 0 Z" stroke="none"/>
        </g>
        <g id="Ellipse_2-2" data-name="Ellipse 2" transform="translate(584 158)" fill="#f8e654" stroke="#707070" stroke-width="1">
          <ellipse cx="13.5" cy="12.5" rx="13.5" ry="12.5" stroke="none"/>
          <ellipse cx="13.5" cy="12.5" rx="13" ry="12" fill="none"/>
        </g>
        <g id="Group_5-2" data-name="Group 5" transform="translate(347)">
          <g id="Rectangle_3-6" data-name="Rectangle 3" transform="translate(392 136)" fill="#fff" stroke="#000" stroke-linejoin="round" stroke-width="12">
            <rect width="121" height="110" rx="35" stroke="none"/>
            <rect x="-6" y="-6" width="133" height="122" rx="41" fill="none"/>
          </g>
        </g>
        <g id="Polygon_5-2" data-name="Polygon 5" transform="translate(761 213)" fill="#ef7373">
          <path d="M 27.03983688354492 19 L 1.960163235664368 19 L 14.5 1.703673481941223 L 27.03983688354492 19 Z" stroke="none"/>
          <path d="M 14.5 3.407346725463867 L 3.920326232910156 18 L 25.07967376708984 18 L 14.5 3.407346725463867 M 14.5 0 L 29 20 L 0 20 L 14.5 0 Z" stroke="none"/>
        </g>
        <g id="Polygon_6-2" data-name="Polygon 6" transform="translate(782 201)" fill="#8ed900">
          <path d="M 39.24675369262695 30 L 3.753245830535889 30 L 21.5 3.586226463317871 L 39.24675369262695 30 Z" stroke="none"/>
          <path d="M 21.5 7.172452926635742 L 7.506492614746094 28 L 35.49350738525391 28 L 21.5 7.172452926635742 M 21.5 0 L 43 32 L 0 32 L 21.5 0 Z" stroke="none"/>
        </g>
        <g id="Ellipse_3-2" data-name="Ellipse 3" transform="translate(761 158)" fill="#f8e654" stroke="#707070" stroke-width="1">
          <ellipse cx="13.5" cy="12.5" rx="13.5" ry="12.5" stroke="none"/>
          <ellipse cx="13.5" cy="12.5" rx="13" ry="12" fill="none"/>
        </g>
      </g>
      <g transform="translate(-377 268)">
        <g id="Group_1-3" data-name="Group 1" transform="translate(-3)">
          <g id="Rectangle_3-7" data-name="Rectangle 3" transform="translate(392 136)" fill="#fff" stroke="#000" stroke-linejoin="round" stroke-width="12">
            <rect width="121" height="110" rx="35" stroke="none"/>
            <rect x="-6" y="-6" width="133" height="122" rx="41" fill="none"/>
          </g>
        </g>
        <g id="Polygon_1-3" data-name="Polygon 1" transform="translate(425 213)" fill="#ef7373">
          <path d="M 27.03983688354492 19 L 1.960163235664368 19 L 14.5 1.703673481941223 L 27.03983688354492 19 Z" stroke="none"/>
          <path d="M 14.5 3.407346725463867 L 3.920326232910156 18 L 25.07967376708984 18 L 14.5 3.407346725463867 M 14.5 0 L 29 20 L 0 20 L 14.5 0 Z" stroke="none"/>
        </g>
        <g id="Polygon_2-3" data-name="Polygon 2" transform="translate(446 201)" fill="#8ed900">
          <path d="M 39.24675369262695 30 L 3.753245830535889 30 L 21.5 3.586226463317871 L 39.24675369262695 30 Z" stroke="none"/>
          <path d="M 21.5 7.172452926635742 L 7.506492614746094 28 L 35.49350738525391 28 L 21.5 7.172452926635742 M 21.5 0 L 43 32 L 0 32 L 21.5 0 Z" stroke="none"/>
        </g>
        <g id="Ellipse_1-3" data-name="Ellipse 1" transform="translate(425 158)" fill="#f8e654" stroke="#707070" stroke-width="1">
          <ellipse cx="13.5" cy="12.5" rx="13.5" ry="12.5" stroke="none"/>
          <ellipse cx="13.5" cy="12.5" rx="13" ry="12" fill="none"/>
        </g>
        <g id="Group_4-3" data-name="Group 4" transform="translate(172)">
          <g id="Rectangle_3-8" data-name="Rectangle 3" transform="translate(392 136)" fill="#fff" stroke="#000" stroke-linejoin="round" stroke-width="12">
            <rect width="121" height="110" rx="35" stroke="none"/>
            <rect x="-6" y="-6" width="133" height="122" rx="41" fill="none"/>
          </g>
        </g>
        <g id="Polygon_3-3" data-name="Polygon 3" transform="translate(584 213)" fill="#ef7373">
          <path d="M 27.03983688354492 19 L 1.960163235664368 19 L 14.5 1.703673481941223 L 27.03983688354492 19 Z" stroke="none"/>
          <path d="M 14.5 3.407346725463867 L 3.920326232910156 18 L 25.07967376708984 18 L 14.5 3.407346725463867 M 14.5 0 L 29 20 L 0 20 L 14.5 0 Z" stroke="none"/>
        </g>
        <g id="Polygon_4-3" data-name="Polygon 4" transform="translate(605 201)" fill="#8ed900">
          <path d="M 39.24675369262695 30 L 3.753245830535889 30 L 21.5 3.586226463317871 L 39.24675369262695 30 Z" stroke="none"/>
          <path d="M 21.5 7.172452926635742 L 7.506492614746094 28 L 35.49350738525391 28 L 21.5 7.172452926635742 M 21.5 0 L 43 32 L 0 32 L 21.5 0 Z" stroke="none"/>
        </g>
        <g id="Ellipse_2-3" data-name="Ellipse 2" transform="translate(584 158)" fill="#f8e654" stroke="#707070" stroke-width="1">
          <ellipse cx="13.5" cy="12.5" rx="13.5" ry="12.5" stroke="none"/>
          <ellipse cx="13.5" cy="12.5" rx="13" ry="12" fill="none"/>
        </g>
        <g id="Group_5-3" data-name="Group 5" transform="translate(347)">
          <g id="Rectangle_3-9" data-name="Rectangle 3" transform="translate(392 136)" fill="#fff" stroke="#000" stroke-linejoin="round" stroke-width="12">
            <rect width="121" height="110" rx="35" stroke="none"/>
            <rect x="-6" y="-6" width="133" height="122" rx="41" fill="none"/>
          </g>
        </g>
        <g id="Polygon_5-3" data-name="Polygon 5" transform="translate(761 213)" fill="#ef7373">
          <path d="M 27.03983688354492 19 L 1.960163235664368 19 L 14.5 1.703673481941223 L 27.03983688354492 19 Z" stroke="none"/>
          <path d="M 14.5 3.407346725463867 L 3.920326232910156 18 L 25.07967376708984 18 L 14.5 3.407346725463867 M 14.5 0 L 29 20 L 0 20 L 14.5 0 Z" stroke="none"/>
        </g>
        <g id="Polygon_6-3" data-name="Polygon 6" transform="translate(782 201)" fill="#8ed900">
          <path d="M 39.24675369262695 30 L 3.753245830535889 30 L 21.5 3.586226463317871 L 39.24675369262695 30 Z" stroke="none"/>
          <path d="M 21.5 7.172452926635742 L 7.506492614746094 28 L 35.49350738525391 28 L 21.5 7.172452926635742 M 21.5 0 L 43 32 L 0 32 L 21.5 0 Z" stroke="none"/>
        </g>
        <g id="Ellipse_3-3" data-name="Ellipse 3" transform="translate(761 158)" fill="#f8e654" stroke="#707070" stroke-width="1">
          <ellipse cx="13.5" cy="12.5" rx="13.5" ry="12.5" stroke="none"/>
          <ellipse cx="13.5" cy="12.5" rx="13" ry="12" fill="none"/>
        </g>
      </g>
    </g>
  </g>
</svg>
